<svg width="16" height="16" viewBox="0 0 16 16" fill="none" xmlns="http://www.w3.org/2000/svg">
<path d="M11.2134 1.33333H4.78671C3.36671 1.33333 2.21338 2.49333 2.21338 3.90666V13.3C2.21338 14.5 3.07338 15.0067 4.12671 14.4267L7.38005 12.62C7.72671 12.4267 8.28671 12.4267 8.62671 12.62L11.88 14.4267C12.9334 15.0133 13.7934 14.5067 13.7934 13.3V3.90666C13.7867 2.49333 12.6334 1.33333 11.2134 1.33333ZM10.0067 6.49999C9.36005 6.73333 8.68005 6.85333 8.00005 6.85333C7.32005 6.85333 6.64005 6.73333 5.99338 6.49999C5.73338 6.40666 5.60005 6.11999 5.69338 5.85999C5.79338 5.59999 6.08005 5.46666 6.34005 5.55999C7.41338 5.94666 8.59338 5.94666 9.66671 5.55999C9.92671 5.46666 10.2134 5.59999 10.3067 5.85999C10.4 6.11999 10.2667 6.40666 10.0067 6.49999Z" fill="#F5F5F5"/>
</svg>
