<svg width="20" height="20" viewBox="0 0 20 20" fill="none" xmlns="http://www.w3.org/2000/svg">
<path d="M14 7.5H10.625V11.2L12.35 9.475C12.475 9.35 12.6333 9.29167 12.7916 9.29167C12.95 9.29167 13.1083 9.35 13.2333 9.475C13.475 9.71667 13.475 10.1167 13.2333 10.3583L10.4416 13.15C10.2 13.3917 9.79996 13.3917 9.55829 13.15L6.76663 10.3583C6.52496 10.1167 6.52496 9.71667 6.76663 9.475C7.00829 9.23333 7.40829 9.23333 7.64996 9.475L9.37496 11.2V7.5H5.99996C3.33329 7.5 1.66663 9.16667 1.66663 11.8333V13.9917C1.66663 16.6667 3.33329 18.3333 5.99996 18.3333H13.9916C16.6583 18.3333 18.325 16.6667 18.325 14V11.8333C18.3333 9.16667 16.6666 7.5 14 7.5Z" fill="#F5F5F5"/>
<path d="M10.625 2.29169C10.625 1.95002 10.3417 1.66669 10 1.66669C9.65833 1.66669 9.375 1.95002 9.375 2.29169V7.50002H10.625V2.29169Z" fill="#F5F5F5"/>
</svg>
