<svg width="16" height="17" viewBox="0 0 16 17" fill="none" xmlns="http://www.w3.org/2000/svg">
<g id="vuesax/bold/sms">
<g id="vuesax/bold/sms_2">
<g id="sms">
<path id="Vector" d="M11.3333 2.83333H4.66667C2.66667 2.83333 1.33333 3.83333 1.33333 6.16666V10.8333C1.33333 13.1667 2.66667 14.1667 4.66667 14.1667H11.3333C13.3333 14.1667 14.6667 13.1667 14.6667 10.8333V6.16666C14.6667 3.83333 13.3333 2.83333 11.3333 2.83333ZM11.6467 6.89333L9.56 8.55999C9.12 8.91333 8.56 9.08666 8 9.08666C7.44 9.08666 6.87333 8.91333 6.44 8.55999L4.35333 6.89333C4.14 6.71999 4.10667 6.39999 4.27333 6.18666C4.44667 5.97333 4.76 5.93333 4.97333 6.10666L7.06 7.77333C7.56667 8.17999 8.42666 8.17999 8.93333 7.77333L11.02 6.10666C11.2333 5.93333 11.5533 5.96666 11.72 6.18666C11.8933 6.39999 11.86 6.71999 11.6467 6.89333Z" fill="#9C9C9C"/>
</g>
</g>
</g>
</svg>
