<svg width="21" height="20" viewBox="0 0 21 20" fill="none" xmlns="http://www.w3.org/2000/svg">
<path d="M18.2084 7.625C16.2834 4.6 13.4667 2.85834 10.5001 2.85834C9.01675 2.85834 7.57508 3.29167 6.25841 4.1C4.94175 4.91667 3.75841 6.10834 2.79175 7.625C1.95841 8.93334 1.95841 11.0583 2.79175 12.3667C4.71675 15.4 7.53341 17.1333 10.5001 17.1333C11.9834 17.1333 13.4251 16.7 14.7417 15.8917C16.0584 15.075 17.2417 13.8833 18.2084 12.3667C19.0417 11.0667 19.0417 8.93334 18.2084 7.625ZM10.5001 13.3667C8.63341 13.3667 7.13341 11.8583 7.13341 10C7.13341 8.14167 8.63341 6.63334 10.5001 6.63334C12.3667 6.63334 13.8667 8.14167 13.8667 10C13.8667 11.8583 12.3667 13.3667 10.5001 13.3667Z" fill="#F5F5F5"/>
<path d="M10.5 7.61664C9.19167 7.61664 8.125 8.6833 8.125 9.99997C8.125 11.3083 9.19167 12.375 10.5 12.375C11.8083 12.375 12.8833 11.3083 12.8833 9.99997C12.8833 8.69164 11.8083 7.61664 10.5 7.61664Z" fill="#F5F5F5"/>
</svg>
