<svg width="16" height="17" viewBox="0 0 16 17" fill="none" xmlns="http://www.w3.org/2000/svg">
<g id="vuesax/bold/eye-slash">
<g id="vuesax/bold/eye-slash_2">
<path id="Vector" d="M14.18 6.62C13.9867 6.31334 13.78 6.02667 13.5667 5.76C13.32 5.44667 12.8533 5.42 12.5733 5.7L10.5733 7.7C10.72 8.14 10.7467 8.64667 10.6133 9.17334C10.38 10.1133 9.62001 10.8733 8.68001 11.1067C8.15334 11.24 7.64667 11.2133 7.20667 11.0667C7.20667 11.0667 6.25334 12.02 5.56667 12.7067C5.23334 13.04 5.34001 13.6267 5.78667 13.8C6.50001 14.0733 7.24001 14.2133 8.00001 14.2133C9.18667 14.2133 10.34 13.8667 11.3933 13.22C12.4667 12.5533 13.4333 11.5733 14.2133 10.3267C14.8467 9.32 14.8133 7.62667 14.18 6.62Z" fill="#9C9C9C"/>
<path id="Vector_2" d="M9.34666 7.15332L6.65332 9.84666C6.31332 9.49999 6.09332 9.01999 6.09332 8.49999C6.09332 7.45332 6.94666 6.59332 7.99999 6.59332C8.51999 6.59332 8.99999 6.81332 9.34666 7.15332Z" fill="#9C9C9C"/>
<path id="Vector_3" d="M12.1667 4.33335L9.90668 6.59335C9.42001 6.10002 8.74668 5.80668 8.00001 5.80668C6.50668 5.80668 5.30668 7.01335 5.30668 8.50002C5.30668 9.24668 5.60668 9.92002 6.09334 10.4067L3.84001 12.6667H3.83334C3.09334 12.0667 2.41334 11.3 1.83334 10.3933C1.16668 9.34668 1.16668 7.64668 1.83334 6.60002C2.60668 5.38668 3.55334 4.43335 4.60668 3.78002C5.66001 3.14002 6.81334 2.78668 8.00001 2.78668C9.48668 2.78668 10.9267 3.33335 12.1667 4.33335Z" fill="#9C9C9C"/>
<path id="Vector_4" d="M9.90666 8.49999C9.90666 9.54666 9.05332 10.4067 7.99999 10.4067C7.95999 10.4067 7.92666 10.4067 7.88666 10.3933L9.89332 8.38666C9.90666 8.42666 9.90666 8.45999 9.90666 8.49999Z" fill="#9C9C9C"/>
<path id="Vector_5" d="M14.5133 1.98667C14.3133 1.78667 13.9867 1.78667 13.7867 1.98667L1.48667 14.2933C1.28667 14.4933 1.28667 14.82 1.48667 15.02C1.58667 15.1133 1.71334 15.1667 1.84667 15.1667C1.98 15.1667 2.10667 15.1133 2.20667 15.0133L14.5133 2.70667C14.72 2.50667 14.72 2.18667 14.5133 1.98667Z" fill="#9C9C9C"/>
</g>
</g>
</svg>
