<svg width="16" height="17" viewBox="0 0 16 17" fill="none" xmlns="http://www.w3.org/2000/svg">
<g id="vuesax/bold/lock">
<g id="vuesax/bold/lock_2">
<path id="Vector" d="M8 12.0667C8.60015 12.0667 9.08667 11.5802 9.08667 10.98C9.08667 10.3799 8.60015 9.89334 8 9.89334C7.39985 9.89334 6.91333 10.3799 6.91333 10.98C6.91333 11.5802 7.39985 12.0667 8 12.0667Z" fill="#9C9C9C"/>
<path id="Vector_2" d="M12.1867 6.85334V6.02001C12.1867 4.22001 11.7533 1.83334 8 1.83334C4.24667 1.83334 3.81333 4.22001 3.81333 6.02001V6.85334C1.94667 7.08668 1.33333 8.03334 1.33333 10.36V11.6C1.33333 14.3333 2.16667 15.1667 4.9 15.1667H11.1C13.8333 15.1667 14.6667 14.3333 14.6667 11.6V10.36C14.6667 8.03334 14.0533 7.08668 12.1867 6.85334ZM8 12.9933C6.88666 12.9933 5.98666 12.0867 5.98666 10.98C5.98666 9.86668 6.89333 8.96668 8 8.96668C9.10667 8.96668 10.0133 9.87334 10.0133 10.98C10.0133 12.0933 9.11333 12.9933 8 12.9933ZM4.9 6.79334C4.84667 6.79334 4.8 6.79334 4.74667 6.79334V6.02001C4.74667 4.06668 5.3 2.76668 8 2.76668C10.7 2.76668 11.2533 4.06668 11.2533 6.02001V6.80001C11.2 6.80001 11.1533 6.80001 11.1 6.80001H4.9V6.79334Z" fill="#9C9C9C"/>
</g>
</g>
</svg>
